<svg width="1024" height="1024" viewBox="0 0 1024 1024" fill="none" xmlns="http://www.w3.org/2000/svg">
  <!-- Background gradient -->
  <defs>
    <linearGradient id="bgGradient" x1="0%" y1="0%" x2="100%" y2="100%">
      <stop offset="0%" style="stop-color:#1e3a8a;stop-opacity:1" />
      <stop offset="100%" style="stop-color:#3b82f6;stop-opacity:1" />
    </linearGradient>
    <linearGradient id="cloudGradient" x1="0%" y1="0%" x2="100%" y2="100%">
      <stop offset="0%" style="stop-color:#ffffff;stop-opacity:0.9" />
      <stop offset="100%" style="stop-color:#e5e7eb;stop-opacity:0.9" />
    </linearGradient>
    <linearGradient id="lightningGradient" x1="0%" y1="0%" x2="100%" y2="100%">
      <stop offset="0%" style="stop-color:#fbbf24;stop-opacity:1" />
      <stop offset="100%" style="stop-color:#f59e0b;stop-opacity:1" />
    </linearGradient>
  </defs>
  
  <!-- Background circle (safe area for adaptive icon) -->
  <circle cx="512" cy="512" r="460" fill="url(#bgGradient)"/>
  
  <!-- Cloud 1 (background) -->
  <ellipse cx="300" cy="400" rx="100" ry="70" fill="url(#cloudGradient)" opacity="0.7"/>
  <ellipse cx="400" cy="400" rx="80" ry="50" fill="url(#cloudGradient)" opacity="0.7"/>
  <ellipse cx="480" cy="400" rx="60" ry="40" fill="url(#cloudGradient)" opacity="0.7"/>
  
  <!-- Cloud 2 (foreground) -->
  <ellipse cx="550" cy="320" rx="80" ry="60" fill="url(#cloudGradient)" opacity="0.8"/>
  <ellipse cx="630" cy="320" rx="60" ry="40" fill="url(#cloudGradient)" opacity="0.8"/>
  <ellipse cx="690" cy="320" rx="40" ry="30" fill="url(#cloudGradient)" opacity="0.8"/>
  
  <!-- Lightning bolt (centered and prominent) -->
  <path d="M 450 220 L 400 350 L 480 350 L 430 480 L 520 480 L 470 350 L 550 350 Z" fill="url(#lightningGradient)"/>
  
  <!-- Rain drops -->
  <ellipse cx="350" cy="520" rx="2" ry="6" fill="#60a5fa" opacity="0.8"/>
  <ellipse cx="370" cy="540" rx="2" ry="6" fill="#60a5fa" opacity="0.8"/>
  <ellipse cx="390" cy="520" rx="2" ry="6" fill="#60a5fa" opacity="0.8"/>
  <ellipse cx="410" cy="540" rx="2" ry="6" fill="#60a5fa" opacity="0.8"/>
  <ellipse cx="430" cy="520" rx="2" ry="6" fill="#60a5fa" opacity="0.8"/>
  
  <!-- Additional rain drops -->
  <ellipse cx="600" cy="420" rx="1.5" ry="4" fill="#60a5fa" opacity="0.6"/>
  <ellipse cx="615" cy="435" rx="1.5" ry="4" fill="#60a5fa" opacity="0.6"/>
  <ellipse cx="630" cy="420" rx="1.5" ry="4" fill="#60a5fa" opacity="0.6"/>
  
  <!-- Wind lines -->
  <path d="M 220 280 Q 260 280 300 270" stroke="#ffffff" stroke-width="2" fill="none" opacity="0.6"/>
  <path d="M 220 295 Q 260 295 300 285" stroke="#ffffff" stroke-width="1.5" fill="none" opacity="0.4"/>
</svg> 