<svg width="1024" height="1024" viewBox="0 0 1024 1024" fill="none" xmlns="http://www.w3.org/2000/svg">
  <!-- Background gradient -->
  <defs>
    <linearGradient id="bgGradient" x1="0%" y1="0%" x2="100%" y2="100%">
      <stop offset="0%" style="stop-color:#1e3a8a;stop-opacity:1" />
      <stop offset="100%" style="stop-color:#3b82f6;stop-opacity:1" />
    </linearGradient>
    <linearGradient id="cloudGradient" x1="0%" y1="0%" x2="100%" y2="100%">
      <stop offset="0%" style="stop-color:#ffffff;stop-opacity:0.9" />
      <stop offset="100%" style="stop-color:#e5e7eb;stop-opacity:0.9" />
    </linearGradient>
    <linearGradient id="lightningGradient" x1="0%" y1="0%" x2="100%" y2="100%">
      <stop offset="0%" style="stop-color:#fbbf24;stop-opacity:1" />
      <stop offset="100%" style="stop-color:#f59e0b;stop-opacity:1" />
    </linearGradient>
  </defs>
  
  <!-- Background circle -->
  <circle cx="512" cy="512" r="512" fill="url(#bgGradient)"/>
  
  <!-- Cloud 1 (background) -->
  <ellipse cx="300" cy="400" rx="120" ry="80" fill="url(#cloudGradient)" opacity="0.7"/>
  <ellipse cx="420" cy="400" rx="100" ry="60" fill="url(#cloudGradient)" opacity="0.7"/>
  <ellipse cx="520" cy="400" rx="80" ry="50" fill="url(#cloudGradient)" opacity="0.7"/>
  
  <!-- Cloud 2 (foreground) -->
  <ellipse cx="600" cy="300" rx="100" ry="70" fill="url(#cloudGradient)" opacity="0.8"/>
  <ellipse cx="700" cy="300" rx="80" ry="50" fill="url(#cloudGradient)" opacity="0.8"/>
  <ellipse cx="780" cy="300" rx="60" ry="40" fill="url(#cloudGradient)" opacity="0.8"/>
  
  <!-- Lightning bolt -->
  <path d="M 450 200 L 380 350 L 480 350 L 420 500 L 550 500 L 480 350 L 580 350 Z" fill="url(#lightningGradient)"/>
  
  <!-- Rain drops -->
  <ellipse cx="350" cy="550" rx="3" ry="8" fill="#60a5fa" opacity="0.8"/>
  <ellipse cx="380" cy="570" rx="3" ry="8" fill="#60a5fa" opacity="0.8"/>
  <ellipse cx="410" cy="550" rx="3" ry="8" fill="#60a5fa" opacity="0.8"/>
  <ellipse cx="440" cy="570" rx="3" ry="8" fill="#60a5fa" opacity="0.8"/>
  <ellipse cx="470" cy="550" rx="3" ry="8" fill="#60a5fa" opacity="0.8"/>
  
  <!-- Additional rain drops -->
  <ellipse cx="650" cy="450" rx="2" ry="6" fill="#60a5fa" opacity="0.6"/>
  <ellipse cx="670" cy="470" rx="2" ry="6" fill="#60a5fa" opacity="0.6"/>
  <ellipse cx="690" cy="450" rx="2" ry="6" fill="#60a5fa" opacity="0.6"/>
  
  <!-- Wind lines -->
  <path d="M 200 250 Q 250 250 300 240" stroke="#ffffff" stroke-width="3" fill="none" opacity="0.6"/>
  <path d="M 200 270 Q 250 270 300 260" stroke="#ffffff" stroke-width="2" fill="none" opacity="0.4"/>
  <path d="M 200 290 Q 250 290 300 280" stroke="#ffffff" stroke-width="2" fill="none" opacity="0.4"/>
</svg> 